<?xml version="1.0" encoding="UTF-8" standalone="no" ?>
<!DOCTYPE svg PUBLIC "-//W3C//DTD SVG 1.1//EN" "http://www.w3.org/Graphics/SVG/1.1/DTD/svg11.dtd">
<svg xmlns="http://www.w3.org/2000/svg" xmlns:xlink="http://www.w3.org/1999/xlink" version="1.1" width="1080" height="1080" viewBox="0 0 1080 1080" xml:space="preserve">
<desc>Created with Fabric.js 5.2.4</desc>
<defs>
</defs>
<g transform="matrix(1 0 0 1 540 540)" id="effa24da-5a25-46c7-b89e-e40b37011969"  >
<rect style="stroke: none; stroke-width: 1; stroke-dasharray: none; stroke-linecap: butt; stroke-dashoffset: 0; stroke-linejoin: miter; stroke-miterlimit: 4; fill: rgb(255,255,255); fill-rule: nonzero; opacity: 1; visibility: hidden;" vector-effect="non-scaling-stroke"  x="-540" y="-540" rx="0" ry="0" width="1080" height="1080" />
</g>
<g transform="matrix(1 0 0 1 540 540)" id="3fd0589c-0376-4143-96b4-edebc7695c15"  >
</g>
<g transform="matrix(2.11 0 0 2.11 540 540)"  >
<path style="stroke: none; stroke-width: 1; stroke-dasharray: none; stroke-linecap: butt; stroke-dashoffset: 0; stroke-linejoin: miter; stroke-miterlimit: 4; fill: rgb(0,0,0); fill-rule: nonzero; opacity: 1;"  transform=" translate(-240.02, -256)" d="M 256 0 C 230.7 0 208.8 14.7 198.4 36 C 191.4 33.4 183.9 32 176 32 C 140.7 32 112 60.7 112 96 L 112 261.5 L 109.3 258.8 C 84.3 233.8 43.8 233.8 18.799999999999997 258.8 C -6.200000000000003 283.8 -6.200000000000003 324.3 18.799999999999997 349.3 L 106.5 437 C 154.5 485 219.6 512 287.5 512 L 296 512 L 304 512 C 305.5 512 307 511.9 308.5 511.6 C 400.2 505.40000000000003 473.5 432.20000000000005 479.6 340.5 C 479.90000000000003 339 480 337.5 480 336 L 480 160 C 480 124.7 451.3 96 416 96 C 410.5 96 405.1 96.7 400 98 L 400 96 C 400 60.7 371.3 32 336 32 C 328.1 32 320.6 33.4 313.6 36 C 303.2 14.7 281.3 0 256 0 z M 240 96.1 L 240 96 L 240 64 C 240 55.2 247.2 48 256 48 C 264.8 48 272 55.2 272 64 L 272 95.9 L 272 96 L 272 232 C 272 245.3 282.7 256 296 256 C 309.3 256 320 245.3 320 232 L 320 96 C 320 96 320 96 320 95.9 C 320 87.10000000000001 327.2 79.9 336 79.9 C 344.8 79.9 352 87.10000000000001 352 95.9 L 352 151.8 C 352 151.8 352 151.9 352 151.9 L 352 231.9 C 352 245.20000000000002 362.7 255.9 376 255.9 C 389.3 255.9 400 245.20000000000002 400 231.9 L 400 160 C 400 160 400 159.9 400 159.9 C 400 151.1 407.2 143.9 416 143.9 C 424.8 143.9 432 151.1 432 159.9 L 432 332.8 C 431.9 333.40000000000003 431.9 334.1 431.8 334.7 C 428.40000000000003 404.4 372.5 460.29999999999995 302.8 463.7 C 302.2 463.7 301.5 463.8 300.90000000000003 463.9 L 296.00000000000006 463.9 L 287.50000000000006 463.9 C 232.30000000000007 463.9 179.40000000000006 442 140.40000000000006 403 L 52.7 315.3 C 46.5 309.1 46.5 298.90000000000003 52.7 292.7 C 58.900000000000006 286.49999999999994 69.1 286.5 75.30000000000001 292.7 L 119 336.4 C 125.9 343.29999999999995 136.2 345.29999999999995 145.2 341.59999999999997 C 154.2 337.9 160 329.09999999999997 160 319.4 L 160 96 C 160 87.2 167.2 80 176 80 C 184.8 80 192 87.1 192 95.9 L 192 232 C 192 245.3 202.7 256 216 256 C 229.3 256 240 245.3 240 232 L 240 96.1 z" stroke-linecap="round" />
</g>
</svg>