<?xml version="1.0" encoding="UTF-8" standalone="no" ?>
<!DOCTYPE svg PUBLIC "-//W3C//DTD SVG 1.1//EN" "http://www.w3.org/Graphics/SVG/1.1/DTD/svg11.dtd">
<svg xmlns="http://www.w3.org/2000/svg" xmlns:xlink="http://www.w3.org/1999/xlink" version="1.1" width="1080" height="1080" viewBox="0 0 1080 1080" xml:space="preserve">
<desc>Created with Fabric.js 5.2.4</desc>
<defs>
</defs>
<rect x="0" y="0" width="100%" height="100%" fill="transparent"></rect>
<g transform="matrix(1 0 0 1 540 540)" id="a996779f-398e-4991-913b-497e79af3b4c"  >
<rect style="stroke: none; stroke-width: 1; stroke-dasharray: none; stroke-linecap: butt; stroke-dashoffset: 0; stroke-linejoin: miter; stroke-miterlimit: 4; fill: rgb(255,255,255); fill-rule: nonzero; opacity: 1; visibility: hidden;" vector-effect="non-scaling-stroke"  x="-540" y="-540" rx="0" ry="0" width="1080" height="1080" />
</g>
<g transform="matrix(1 0 0 1 540 540)" id="d8db3ed5-f224-442a-9752-e60bce24550f"  >
</g>
<g transform="matrix(1.94 0 0 1.94 540 507.55)"  >
<path style="stroke: none; stroke-width: 1; stroke-dasharray: none; stroke-linecap: butt; stroke-dashoffset: 0; stroke-linejoin: miter; stroke-miterlimit: 4; fill: rgb(0,0,0); fill-rule: nonzero; opacity: 1;"  transform=" translate(-224, -256)" d="M 144 64 C 144 55.2 151.2 48 160 48 C 168.8 48 176 55.2 176 64 C 176 73.1 181.1 81.4 189.3 85.5 C 197.50000000000003 89.6 207.20000000000002 88.7 214.4 83.2 C 217.1 81.2 220.4 80 224 80 C 232.8 80 240 87.2 240 96 C 240 105.1 245.1 113.4 253.3 117.5 C 261.5 121.6 271.2 120.7 278.40000000000003 115.2 C 281.1 113.2 284.40000000000003 112 288.00000000000006 112 C 296.80000000000007 112 304.00000000000006 119.2 304.00000000000006 128 C 304.00000000000006 137.1 309.1000000000001 145.4 317.30000000000007 149.5 C 325.50000000000006 153.6 335.20000000000005 152.7 342.4000000000001 147.2 C 345.1000000000001 145.2 348.4000000000001 144 352.0000000000001 144 C 360.8000000000001 144 368.0000000000001 151.2 368.0000000000001 160 L 368.0000000000001 264 C 368.0000000000001 295.3 348.0000000000001 322 320.0000000000001 331.9 C 310.4000000000001 335.29999999999995 304.0000000000001 344.4 304.0000000000001 354.5 L 304 488 C 304 501.3 314.7 512 328 512 C 341.3 512 352 501.3 352 488 L 352 370.2 C 390 350.09999999999997 416 310.09999999999997 416 264 L 416 160 C 416 124.7 387.3 96 352 96 C 349.2 96 346.4 96.2 343.7 96.5 C 332.8 77.1 311.9 64 288 64 C 285.2 64 282.4 64.2 279.7 64.5 C 268.8 45.1 247.9 32 224 32 C 221.2 32 218.4 32.2 215.7 32.5 C 204.8 13.1 183.9 0 160 0 C 124.7 0 96 28.7 96 64 L 96 128.3 C 84.3 135.70000000000002 73.5 144.70000000000002 64 155.20000000000002 L 81.8 171.3 L 64 155.2 L 54.6 165.7 C 40 181.8 32 202.8 32 224.6 L 32 237.4 C 32 287 56.2 333.5 96.8 361.9 L 110.6 342.2 L 96.8 361.9 L 105.7 368.09999999999997 C 112.60000000000001 372.9 120.10000000000001 376.7 128 379.4 L 128 488 C 128 501.3 138.7 512 152 512 C 165.3 512 176 501.3 176 488 L 176 359.9 C 176 347.29999999999995 166.2 336.79999999999995 153.6 336 C 146.29999999999998 335.5 139.29999999999998 333.1 133.29999999999998 328.9 L 120.19999999999999 347.59999999999997 L 133.29999999999998 328.9 L 124.39999999999998 322.7 C 96.6 303.1 80 271.3 80 237.4 L 80 224.6 C 80 214.7 83.7 205.2 90.3 197.79999999999998 L 99.7 187.29999999999998 C 103.5 183.1 107.60000000000001 179.2 112 175.7 L 112 208 C 112 216.8 119.2 224 128 224 C 136.8 224 144 216.8 144 208 L 144 142.3 L 144 128 L 144 64 z" stroke-linecap="round" />
</g>
</svg>