<?xml version="1.0" encoding="UTF-8" standalone="no" ?>
<!DOCTYPE svg PUBLIC "-//W3C//DTD SVG 1.1//EN" "http://www.w3.org/Graphics/SVG/1.1/DTD/svg11.dtd">
<svg xmlns="http://www.w3.org/2000/svg" xmlns:xlink="http://www.w3.org/1999/xlink" version="1.1" width="1080" height="1080" viewBox="0 0 1080 1080" xml:space="preserve">
<desc>Created with Fabric.js 5.2.4</desc>
<defs>
</defs>
<g transform="matrix(1 0 0 1 540 540)" id="9e1f69f7-85c1-4b93-9393-55c8230d8547"  >
<rect style="stroke: none; stroke-width: 1; stroke-dasharray: none; stroke-linecap: butt; stroke-dashoffset: 0; stroke-linejoin: miter; stroke-miterlimit: 4; fill: rgb(255,255,255); fill-rule: nonzero; opacity: 1; visibility: hidden;" vector-effect="non-scaling-stroke"  x="-540" y="-540" rx="0" ry="0" width="1080" height="1080" />
</g>
<g transform="matrix(1 0 0 1 540 540)" id="61b6b180-6b13-4d1b-a878-e6efa305c320"  >
</g>
<g transform="matrix(2.11 0 0 2.11 540 540)"  >
<path style="stroke: none; stroke-width: 1; stroke-dasharray: none; stroke-linecap: butt; stroke-dashoffset: 0; stroke-linejoin: miter; stroke-miterlimit: 4; fill: rgb(0,0,0); fill-rule: nonzero; opacity: 1;"  transform=" translate(-256.08, -264)" d="M 0.2 276.3 C -1 241 26.599999999999998 211.3 61.900000000000006 210.10000000000002 L 65.2 210.00000000000003 L 57 208.1 C 22.5 200.5 0.7 166.3 8.3 131.8 C 15.900000000000002 97.30000000000001 50.2 75.5 84.7 83.2 L 257.7 121.5 C 260 118.6 262.4 115.8 264.8 113 L 283.2 92.7 C 299.9 74.5 323.5 64 348.3 64 L 358.5 64 C 412.6 64 462.6 92.7 489.8 139.4 L 491.3 142 C 504.90000000000003 165.2 512 191.7 512 218.6 L 512 344 C 512 410.3 458.3 464 392 464 L 384 464 L 288 464 C 252.7 464 224 435.3 224 400 C 224 397.2 224.2 394.4 224.5 391.7 C 205.1 380.7 192 359.9 192 336 C 192 335.2 192 334.4 192 333.6 L 66.4 338 C 31.10000000000001 339.2 1.4000000000000057 311.6 0.20000000000000284 276.3 z M 63.6 258.1 C 54.8 258.40000000000003 47.900000000000006 265.8 48.2 274.6 C 48.5 283.40000000000003 55.900000000000006 290.3 64.7 290 L 226.2 284.4 C 236 284.09999999999997 244.89999999999998 289.7 248.89999999999998 298.59999999999997 C 252.89999999999998 307.49999999999994 251.09999999999997 317.9 244.39999999999998 324.99999999999994 C 241.59999999999997 327.8999999999999 239.99999999999997 331.69999999999993 239.99999999999997 335.99999999999994 C 239.99999999999997 344.79999999999995 247.19999999999996 351.99999999999994 255.99999999999997 351.99999999999994 C 265.09999999999997 351.99999999999994 273.4 357.09999999999997 277.5 365.29999999999995 C 281.6 373.49999999999994 280.7 383.19999999999993 275.2 390.4 C 273.2 393.09999999999997 272 396.4 272 400 C 272 408.8 279.2 416 288 416 L 384 416 L 392 416 C 431.8 416 464 383.8 464 344 L 464 218.6 C 464 200.2 459.1 182.1 449.8 166.2 L 448.3 163.6 C 429.7 131.6 395.5 112 358.5 112 L 348.3 112 C 337 112 326.3 116.8 318.7 125.1 L 301.2 109.19999999999999 L 318.7 125.1 L 300.3 145.4 C 299.7 146 299.2 146.70000000000002 298.6 147.3 L 355.6 160.5 C 364.20000000000005 162.5 369.6 171.1 367.6 179.7 C 365.6 188.29999999999998 357 193.7 348.40000000000003 191.7 L 262.80000000000007 172 L 74.3 130 C 65.7 128.1 57.099999999999994 133.5 55.199999999999996 142.2 C 53.3 150.89999999999998 58.699999999999996 159.39999999999998 67.39999999999999 161.29999999999998 L 254.89999999999998 202.89999999999998 C 265.09999999999997 205.2 272.7 213.79999999999998 273.59999999999997 224.29999999999998 L 273.7 225.29999999999998 C 274.3 231.89999999999998 272.2 238.39999999999998 267.9 243.39999999999998 C 263.59999999999997 248.39999999999998 257.29999999999995 251.29999999999998 250.7 251.59999999999997 L 63.6 258.1 z" stroke-linecap="round" />
</g>
</svg>